<svg xmlns="http://www.w3.org/2000/svg" width="469" height="469" fill="none"><defs><linearGradient id="a" x1=".5" x2=".5" y1="0" y2="1"><stop offset="0%" stop-color="#2CF8FF"/><stop offset="100%" stop-color="#CD41CB"/></linearGradient><filter id="b" width="231" height="237" x="-18" y="-21" color-interpolation-filters="sRGB" filterUnits="objectBoundingBox"><feFlood flood-opacity="0" result="BackgroundImageFix"/><feColorMatrix in="SourceAlpha" values="0 0 0 0 0 0 0 0 0 0 0 0 0 0 0 0 0 0 127 0"/><feOffset dx="2" dy="-1"/><feGaussianBlur stdDeviation="5"/><feColorMatrix values="0 0 0 0 0.12730662524700165 0 0 0 0 0.10759099572896957 0 0 0 0 0.10759099572896957 0 0 0 0.30000001192092896 0"/><feBlend in2="BackgroundImageFix" result="effect1_dropShadow"/><feBlend in="SourceGraphic" in2="effect1_dropShadow" result="shape"/></filter></defs><path fill="url(#a)" fill-rule="evenodd" d="M88 43.867 156.94 41l7.779 187.006L299.7 182.991l12.39-81.076 68.208 10.423-48.19 315.339-68.208-10.423 24.087-157.621-120.284 40.114 2.494 59.977-68.94 2.868L88 43.867Z"/><g filter="url(#b)"><path fill="#FFB520" fill-rule="evenodd" d="M182.515 231q1.209 0 2.416.059 1.207.058 2.41.176 1.202.117 2.398.293 1.195.175 2.38.409 1.185.233 2.358.524 1.172.291 2.328.639 1.157.347 2.294.75 1.138.404 2.255.862 1.116.458 2.209.97 1.092.512 2.158 1.076 1.066.564 2.102 1.18 1.037.615 2.041 1.28 1.005.665 1.976 1.378.97.713 1.905 1.472.934.76 1.829 1.564.896.804 1.75 1.65.855.847 1.666 1.734.812.887 1.578 1.812.767.925 1.487 1.887.72.961 1.391 1.956.671.996 1.293 2.023.621 1.026 1.191 2.082.569 1.056 1.086 2.138.517 1.082.979 2.188.463 1.106.87 2.233t.758 2.272q.35 1.146.644 2.307.294 1.161.529 2.335.236 1.174.413 2.358.178 1.184.296 2.376.119 1.191.178 2.387.059 1.195.059 2.392 0 .744-.023 1.488t-.068 1.486q-.046.743-.115 1.484-.069.74-.16 1.48-.091.738-.206 1.473-.114.735-.25 1.467-.137.731-.296 1.459-.16.727-.341 1.449-.182.721-.385 1.438-.204.716-.43 1.425-.225.71-.473 1.412-.247.703-.516 1.398-.269.694-.559 1.38-.29.687-.601 1.364-.312.677-.643 1.344-.332.668-.685 1.325-.352.657-.724 1.303-.373.646-.765 1.28-.392.635-.803 1.258-.412.622-.842 1.232-.431.61-.88 1.206t-.916 1.18q-.467.582-.952 1.15-.485.568-.987 1.121-.502.554-1.021 1.091-.519.538-1.054 1.06-.536.522-1.087 1.027-.551.506-1.117.995-.567.488-1.148.96-.581.47-1.176.924-.596.454-1.205.889-.609.435-1.231.852v45.422H279V428H88v-62.416h66.949v-45.422q-.623-.417-1.232-.852-.61-.435-1.205-.889-.595-.453-1.176-.925-.581-.47-1.148-.96-.566-.488-1.117-.993-.552-.506-1.087-1.028-.535-.522-1.054-1.06-.52-.537-1.021-1.09-.502-.554-.987-1.122-.485-.568-.952-1.15-.468-.583-.917-1.18-.448-.596-.879-1.206-.43-.61-.842-1.232-.411-.623-.803-1.257-.392-.635-.765-1.28-.372-.647-.725-1.304-.352-.657-.684-1.325-.332-.667-.643-1.344-.31-.677-.601-1.363-.29-.687-.56-1.381-.268-.695-.515-1.398-.248-.702-.474-1.412-.225-.71-.429-1.425-.204-.716-.385-1.438-.181-.722-.34-1.45-.16-.727-.297-1.458-.136-.732-.25-1.467-.115-.735-.206-1.474-.092-.738-.16-1.48-.069-.74-.115-1.483-.046-.742-.068-1.486-.023-.744-.023-1.488 0-1.197.059-2.392.06-1.196.178-2.387.118-1.192.295-2.376.178-1.184.413-2.358.236-1.174.53-2.335.293-1.161.644-2.307.351-1.145.758-2.272.407-1.127.87-2.233.462-1.106.979-2.188.517-1.082 1.086-2.138.57-1.056 1.191-2.083.621-1.026 1.293-2.022.671-.995 1.391-1.956.72-.962 1.487-1.887.766-.925 1.578-1.812.811-.887 1.666-1.734.854-.846 1.75-1.65.895-.804 1.83-1.564.933-.759 1.904-1.472.97-.713 1.975-1.378 1.005-.665 2.042-1.28 1.036-.616 2.102-1.18 1.066-.564 2.158-1.076 1.093-.512 2.21-.97 1.116-.458 2.253-.862 1.138-.403 2.295-.75 1.156-.348 2.328-.639 1.172-.29 2.358-.524 1.185-.234 2.38-.41 1.196-.175 2.398-.292 1.203-.118 2.41-.176 1.207-.059 2.415-.059Z"/></g></svg>