<svg xmlns="http://www.w3.org/2000/svg" xmlns:xlink="http://www.w3.org/1999/xlink" fill="none" version="1.1" width="469" height="469" viewBox="0 0 469 469"><defs><linearGradient x1="0.5" y1="0" x2="0.5" y2="1" id="master_svg0_1_0709"><stop offset="0%" stop-color="#2CF8FF" stop-opacity="1"/><stop offset="100%" stop-color="#CD41CB" stop-opacity="1"/></linearGradient><filter id="master_svg1_1_0715" filterUnits="objectBoundingBox" color-interpolation-filters="sRGB" x="-18" y="-21" width="231" height="237.00006103515625"><feFlood flood-opacity="0" result="BackgroundImageFix"/><feColorMatrix in="SourceAlpha" type="matrix" values="0 0 0 0 0 0 0 0 0 0 0 0 0 0 0 0 0 0 127 0"/><feOffset dy="-1" dx="2"/><feGaussianBlur stdDeviation="5"/><feColorMatrix type="matrix" values="0 0 0 0 0.12730662524700165 0 0 0 0 0.10759099572896957 0 0 0 0 0.10759099572896957 0 0 0 0.30000001192092896 0"/><feBlend mode="normal" in2="BackgroundImageFix" result="effect1_dropShadow"/><feBlend mode="normal" in="SourceGraphic" in2="effect1_dropShadow" result="shape"/></filter></defs><g><g></g><g><path d="M88,43.867489482421874L156.9404,40.999979972821876L164.7187,228.00596948242188L299.7,182.9909694824219L312.09000000000003,101.91466948242189L380.298,112.33816948242188L332.108,427.6769694824219L263.9,417.2539694824219L287.98699999999997,259.6329694824219L167.7027,299.7469694824219L170.19740000000002,359.72396948242186L101.2571,362.59196948242186L88,43.867489482421874Z" fill-rule="evenodd" fill="url(#master_svg0_1_0709)" fill-opacity="1"/></g><g filter="url(#master_svg1_1_0715)"><path d="M182.5154,230.99999237061Q183.72390000000001,230.99999237061,184.9309,231.0587288Q186.1379,231.117465,187.34050000000002,231.234797Q188.543,231.352128,189.739,231.527771Q190.934,231.703415,192.119,231.936948Q193.304,232.17048,194.477,232.46134Q195.649,232.7522,196.805,233.09968Q197.962,233.44717,199.099,233.85044Q200.237,234.25372,201.35399999999998,234.71181Q202.47,235.1699,203.563,235.6817Q204.655,236.19351,205.721,236.75779Q206.787,237.32208,207.82299999999998,237.93748Q208.86,238.55289,209.864,239.21793Q210.869,239.88298,211.84,240.59606Q212.81,241.3091,213.745,242.0685Q214.679,242.8279,215.574,243.6318Q216.47,244.4357,217.324,245.2822Q218.179,246.1286,218.99,247.0156Q219.802,247.9025,220.568,248.8278Q221.335,249.7532,222.055,250.7147Q222.775,251.6761,223.446,252.6714Q224.117,253.6668,224.739,254.6935Q225.36,255.7202,225.93,256.7759Q226.499,257.8316,227.016,258.9138Q227.533,259.9959,227.995,261.1018Q228.458,262.2077,228.865,263.3348Q229.272,264.4619,229.623,265.6074Q229.973,266.7529,230.267,267.9141Q230.561,269.07529999999997,230.796,270.2493Q231.032,271.4234,231.209,272.6074Q231.387,273.7915,231.505,274.9828Q231.624,276.1741,231.683,277.3697Q231.742,278.5653,231.742,279.7624Q231.742,280.5064,231.719,281.25Q231.696,281.9937,231.651,282.7363Q231.605,283.4789,231.536,284.2198Q231.467,284.9607,231.376,285.6991Q231.285,286.4376,231.17,287.1729Q231.056,287.9083,230.92,288.6399Q230.783,289.3714,230.624,290.0985Q230.464,290.8256,230.283,291.5475Q230.101,292.2695,229.898,292.9856Q229.694,293.7017,229.468,294.4113Q229.243,295.121,228.995,295.8234Q228.748,296.5259,228.479,297.2206Q228.21,297.9153,227.92,298.6015Q227.63,299.2877,227.319,299.9649Q227.007,300.642,226.676,301.3094Q226.344,301.9768,225.991,302.6339Q225.639,303.291,225.267,303.9371Q224.894,304.5833,224.502,305.2178Q224.11,305.8524,223.699,306.4748Q223.287,307.0973,222.857,307.707Q222.426,308.31669999999997,221.977,308.9131Q221.528,309.5095,221.061,310.0921Q220.594,310.6746,220.109,311.2428Q219.624,311.81100000000004,219.122,312.3643Q218.62,312.9175,218.101,313.4554Q217.582,313.9932,217.047,314.5151Q216.511,315.03700000000003,215.95999999999998,315.5424Q215.409,316.0479,214.84300000000002,316.5365Q214.276,317.0251,213.695,317.4963Q213.114,317.9676,212.519,318.421Q211.923,318.8745,211.314,319.3097Q210.70499999999998,319.745,210.083,320.1616L210.083,365.584L279,365.584L279,428L88,428L88,365.584L154.9485,365.584L154.9485,320.1617Q154.3262,319.745,153.71710000000002,319.3098Q153.1079,318.8745,152.5125,318.4211Q151.917,317.9676,151.3358,317.4964Q150.7546,317.0252,150.1881,316.5366Q149.6217,316.048,149.0706,315.5425Q148.5195,315.03700000000003,147.9842,314.5151Q147.4489,313.9932,146.9299,313.4554Q146.4109,312.9176,145.90879999999999,312.3643Q145.4066,311.8111,144.9217,311.2429Q144.4368,310.67470000000003,143.9697,310.0921Q143.5025,309.5096,143.05349999999999,308.9132Q142.6045,308.31669999999997,142.174,307.707Q141.74360000000001,307.0973,141.3322,306.4749Q140.9207,305.8525,140.52859999999998,305.2179Q140.1365,304.5833,139.76420000000002,303.9372Q139.3918,303.29110000000003,139.0395,302.634Q138.6872,301.9769,138.3553,301.3095Q138.0234,300.6421,137.7123,299.9649Q137.40109999999999,299.2878,137.11090000000002,298.6015Q136.8207,297.9153,136.55180000000001,297.2206Q136.28289999999998,296.526,136.0355,295.82349999999997Q135.7881,295.121,135.5625,294.4114Q135.3369,293.7017,135.1332,292.9856Q134.9295,292.2695,134.748,291.5476Q134.5665,290.8256,134.4073,290.0985Q134.248,289.3714,134.1113,288.6399Q133.9746,287.9083,133.8604,287.173Q133.7463,286.4376,133.6548,285.6991Q133.5634,284.9607,133.4947,284.2198Q133.4261,283.4789,133.3803,282.7363Q133.3345,281.9937,133.3116,281.25Q133.2886,280.5064,133.2886,279.7624Q133.2886,278.5653,133.3479,277.3697Q133.4072,276.1741,133.5257,274.9828Q133.6441,273.7915,133.82139999999998,272.6074Q133.99869999999999,271.4233,134.2345,270.2493Q134.4703,269.0752,134.7639,267.9141Q135.0575,266.7529,135.4083,265.6074Q135.7591,264.4619,136.1662,263.3348Q136.57330000000002,262.2077,137.0358,261.1018Q137.4982,259.9959,138.0149,258.9138Q138.5316,257.8316,139.1013,256.7759Q139.67090000000002,255.7202,140.2922,254.6935Q140.9135,253.6668,141.5848,252.6714Q142.2562,251.6761,142.9761,250.7147Q143.696,249.7532,144.4626,248.8278Q145.2292,247.9025,146.0408,247.0156Q146.8523,246.1286,147.7068,245.2822Q148.56130000000002,244.4357,149.4567,243.6318Q150.3521,242.8279,151.28629999999998,242.0685Q152.22039999999998,241.3091,153.1911,240.59606Q154.1617,239.88298,155.16649999999998,239.21793Q156.1713,238.55289,157.20780000000002,237.93748Q158.2443,237.32208,159.3101,236.75779Q160.3758,236.19351,161.4683,235.6817Q162.5607,235.1699,163.6772,234.71181Q164.7936,234.25372,165.9314,233.85044Q167.0692,233.44717,168.22570000000002,233.09968Q169.38209999999998,232.7522,170.5543,232.46134Q171.7265,232.17048,172.9118,231.936948Q174.09699999999998,231.703415,175.2924,231.527771Q176.48770000000002,231.352128,177.6904,231.234797Q178.893,231.117465,180.1,231.0587288Q181.30700000000002,230.99999237061,182.5154,230.99999237061Z" fill-rule="evenodd" fill="#FFB520" fill-opacity="1"/></g></g></svg>
